<svg id="Layer_1" data-name="Layer 1" xmlns="http://www.w3.org/2000/svg" viewBox="0 0 1376.15 1170.35"><defs><style>.cls-1{fill:#fff;}</style></defs><path d="M749.87,169.65l.13.07v-.15Z" transform="translate(352.15 -169.57)"/><path d="M749.74,169.57v.15l.13-.07Z" transform="translate(352.15 -169.57)"/><polygon points="1376.15 289.67 1376.15 549.62 1229.8 465.12 1229.8 374.17 1102.15 300.47 974.5 374.17 974.5 465.12 828.15 549.62 828.15 289.67 1102.15 131.48 1376.15 289.67"/><polygon points="1229.8 837.74 1376.15 922.23 1376.15 922.34 1102.15 1080.53 828.15 922.34 828.15 922.23 974.5 837.74 974.5 837.84 1102.15 911.55 1229.8 837.84 1229.8 837.74"/><polygon points="1376.15 605.95 1376.15 865.9 1229.8 781.4 1229.8 690.55 1102.15 764.25 974.5 690.55 974.5 781.4 828.15 865.9 828.15 605.95 974.5 521.46 974.5 521.57 1102.15 595.27 1229.8 521.57 1229.8 521.46 1376.15 605.95"/><circle class="cls-1" cx="129.58" cy="454.85" r="129.58"/><polygon points="176.78 400.36 176.78 445.14 151.57 430.58 151.57 414.91 129.58 402.21 107.58 414.91 107.58 430.58 82.37 445.14 82.37 400.36 129.58 373.1 176.78 400.36"/><polygon points="151.57 494.77 176.78 509.33 176.78 509.35 129.58 536.6 82.37 509.35 82.37 509.33 107.58 494.77 107.58 494.79 129.58 507.49 151.57 494.79 151.57 494.77"/><polygon points="176.78 454.84 176.78 499.63 151.57 485.07 151.57 469.42 129.58 482.11 107.58 469.42 107.58 485.07 82.37 499.63 82.37 454.84 107.58 440.29 107.58 440.3 129.58 453 151.57 440.3 151.57 440.29 176.78 454.84"/><circle cx="129.58" cy="140.47" r="129.58"/><polygon class="cls-1" points="176.78 85.98 176.78 130.76 151.57 116.2 151.57 100.53 129.58 87.84 107.58 100.53 107.58 116.2 82.37 130.76 82.37 85.98 129.58 58.72 176.78 85.98"/><polygon class="cls-1" points="151.57 180.4 176.78 194.95 176.78 194.97 129.58 222.22 82.37 194.97 82.37 194.95 107.58 180.4 107.58 180.41 129.58 193.11 151.57 180.41 151.57 180.4"/><polygon class="cls-1" points="176.78 140.46 176.78 185.25 151.57 170.69 151.57 155.04 129.58 167.74 107.58 155.04 107.58 170.69 82.37 185.25 82.37 140.46 107.58 125.91 107.58 125.93 129.58 138.62 151.57 125.93 151.57 125.91 176.78 140.46"/><path class="cls-1" d="M-222.58,796.16A129.57,129.57,0,0,0-352.15,925.73a129.58,129.58,0,0,0,129.57,129.58A129.58,129.58,0,0,0-93,925.73,129.57,129.57,0,0,0-222.58,796.16Zm47.21,184.07-47.21,27.25-47.2-27.25v0l25.21-14.56v0l22,12.7,22-12.7v0l25.22,14.56Zm0-9.72L-200.59,956V940.29l-22,12.7-22-12.7V956l-25.21,14.56V925.72l25.21-14.55h0l22,12.7,22-12.7h0l25.22,14.55Zm0-54.49-25.22-14.56V885.79l-22-12.69-22,12.69v15.67L-269.78,916V871.23l47.2-27.25,47.21,27.25Z" transform="translate(352.15 -169.57)"/><path d="M-222.58,1080.77a129.57,129.57,0,0,0-129.57,129.57,129.58,129.58,0,0,0,129.57,129.58A129.58,129.58,0,0,0-93,1210.34,129.57,129.57,0,0,0-222.58,1080.77Zm47.21,184.07-47.21,27.25-47.2-27.25v0l25.21-14.56v0l22,12.7,22-12.7v0l25.22,14.56Zm0-9.72-25.22-14.56v-15.65l-22,12.69-22-12.69v15.65l-25.21,14.56v-44.79l25.21-14.55h0l22,12.7,22-12.7h0l25.22,14.55Zm0-54.49-25.22-14.56V1170.4l-22-12.69-22,12.69v15.67l-25.21,14.56v-44.79l47.2-27.25,47.21,27.25Z" transform="translate(352.15 -169.57)"/></svg>