<svg id="Layer_1" data-name="Layer 1" xmlns="http://www.w3.org/2000/svg" xmlns:xlink="http://www.w3.org/1999/xlink" viewBox="0 0 274.34 560"><defs><style>.cls-1,.cls-15,.cls-16,.cls-20,.cls-7{fill:#fff;}.cls-2{fill:url(#linear-gradient);}.cls-18,.cls-21,.cls-3,.cls-9{fill:#151616;}.cls-17,.cls-26,.cls-27,.cls-28,.cls-29,.cls-4{fill:none;}.cls-5{fill:url(#linear-gradient-2);}.cls-6{fill:#3a4d57;}.cls-12,.cls-14,.cls-15,.cls-16,.cls-18,.cls-20,.cls-21,.cls-22,.cls-23,.cls-25,.cls-7,.cls-9{isolation:isolate;}.cls-7{font-size:12.71px;}.cls-12,.cls-15,.cls-16,.cls-18,.cls-20,.cls-21,.cls-22,.cls-23,.cls-25,.cls-7,.cls-9{font-family:ArialMT, Arial;}.cls-8{letter-spacing:-0.06em;}.cls-12,.cls-9{font-size:9.26px;}.cls-10{letter-spacing:-0.02em;}.cls-11{letter-spacing:-0.07em;}.cls-12,.cls-22,.cls-23{fill:#bfc1bf;}.cls-13{letter-spacing:-0.07em;}.cls-15{font-size:9.06px;}.cls-16{font-size:29.44px;}.cls-17{stroke:#fff;}.cls-17,.cls-26,.cls-27,.cls-28,.cls-29{stroke-miterlimit:10;}.cls-17,.cls-27,.cls-28{stroke-width:0.5px;}.cls-18,.cls-20,.cls-21,.cls-22,.cls-23,.cls-25{font-size:6.17px;}.cls-18{letter-spacing:-0.02em;}.cls-19{letter-spacing:0em;}.cls-23{letter-spacing:-0.07em;}.cls-24{letter-spacing:0em;}.cls-25{fill:#25bcaf;}.cls-26{stroke:#bfc1bf;}.cls-26,.cls-29{stroke-width:0.25px;}.cls-27{stroke:#fd3e40;}.cls-28{stroke:#25bcaf;}.cls-29{stroke:#151616;}.cls-30{fill:url(#linear-gradient-3);}.cls-31{fill:url(#linear-gradient-4);}.cls-32{fill:url(#linear-gradient-5);}.cls-33{fill:url(#linear-gradient-6);}.cls-34{fill:url(#linear-gradient-7);}.cls-35{fill:url(#linear-gradient-8);}</style><linearGradient id="linear-gradient" x1="214.95" y1="387.63" x2="215.03" y2="547.31" gradientTransform="matrix(1, 0, 0, -1, 0, 562)" gradientUnits="userSpaceOnUse"><stop offset="0" stop-color="#fe5172"/><stop offset="0.8" stop-color="#fa879a"/><stop offset="1" stop-color="#f995a4"/></linearGradient><linearGradient id="linear-gradient-2" x1="68.23" y1="27.79" x2="361.76" y2="536.2" gradientTransform="matrix(1, 0, 0, -1, 0, 562)" gradientUnits="userSpaceOnUse"><stop offset="0" stop-color="#bfc1bf"/><stop offset="0.04" stop-color="#bdbfbd"/><stop offset="0.06" stop-color="#b5b6b5"/><stop offset="0.08" stop-color="#a7a8a7"/><stop offset="0.1" stop-color="#939593"/><stop offset="0.11" stop-color="#7a7b7a"/><stop offset="0.12" stop-color="#5b5b5b"/><stop offset="0.14" stop-color="#353635"/><stop offset="0.15" stop-color="#0c0c0c"/><stop offset="0.15"/><stop offset="0.21" stop-color="#020202"/><stop offset="0.23" stop-color="#090909"/><stop offset="0.24" stop-color="#141514"/><stop offset="0.25" stop-color="#252625"/><stop offset="0.26" stop-color="#3b3c3b"/><stop offset="0.27" stop-color="#565756"/><stop offset="0.28" stop-color="#767776"/><stop offset="0.29" stop-color="#9a9c9a"/><stop offset="0.29" stop-color="#bfc1bf"/><stop offset="0.55"/><stop offset="0.61" stop-color="#020202"/><stop offset="0.63" stop-color="#090909"/><stop offset="0.64" stop-color="#141514"/><stop offset="0.65" stop-color="#252625"/><stop offset="0.67" stop-color="#3b3c3b"/><stop offset="0.67" stop-color="#565756"/><stop offset="0.68" stop-color="#767776"/><stop offset="0.69" stop-color="#9a9c9a"/><stop offset="0.7" stop-color="#bfc1bf"/><stop offset="0.87"/><stop offset="0.89" stop-color="#040404"/><stop offset="0.91" stop-color="#101010"/><stop offset="0.93" stop-color="#242424"/><stop offset="0.95" stop-color="#404140"/><stop offset="0.97" stop-color="#646564"/><stop offset="0.98" stop-color="#909190"/><stop offset="1" stop-color="#bfc1bf"/></linearGradient><linearGradient id="linear-gradient-3" x1="17.21" y1="346.91" x2="26.53" y2="346.91" gradientTransform="matrix(1, 0, 0, 1, 0, 0)" xlink:href="#linear-gradient"/><linearGradient id="linear-gradient-4" x1="55.64" y1="331.05" x2="64.96" y2="331.05" gradientTransform="matrix(1, 0, 0, 1, 0, 0)" xlink:href="#linear-gradient"/><linearGradient id="linear-gradient-5" x1="94.07" y1="299.35" x2="103.39" y2="299.35" gradientTransform="matrix(1, 0, 0, 1, 0, 0)" xlink:href="#linear-gradient"/><linearGradient id="linear-gradient-6" x1="132.5" y1="331.05" x2="141.82" y2="331.05" gradientTransform="matrix(1, 0, 0, 1, 0, 0)" xlink:href="#linear-gradient"/><linearGradient id="linear-gradient-7" x1="248.76" y1="283.49" x2="258.08" y2="283.49" gradientTransform="translate(492.65 -12.07) rotate(80.78)" xlink:href="#linear-gradient"/><linearGradient id="linear-gradient-8" x1="209.36" y1="299.35" x2="218.68" y2="299.35" gradientTransform="matrix(1, 0, 0, 1, 0, 0)" xlink:href="#linear-gradient"/></defs><path class="cls-1" d="M341.43,35.78V524.22a26.82,26.82,0,0,1-26.83,26.84H115.39a26.85,26.85,0,0,1-26.84-26.84V35.78A26.84,26.84,0,0,1,115.39,8.94H146.7V18A13.58,13.58,0,0,0,160.28,31.6H269.7A13.57,13.57,0,0,0,283.28,18V8.94h31.31A26.83,26.83,0,0,1,341.43,35.78Z" transform="translate(-77.83)"/><path class="cls-2" d="M341.43,35.78V159.55a26.82,26.82,0,0,1-26.83,26.84H115.39a26.85,26.85,0,0,1-26.84-26.84V35.78A26.84,26.84,0,0,1,115.39,8.94H146.7V18A13.58,13.58,0,0,0,160.28,31.6H269.7A13.57,13.57,0,0,0,283.28,18V8.94h31.31A26.83,26.83,0,0,1,341.43,35.78Z" transform="translate(-77.83)"/><path class="cls-3" d="M352.17,132.87v38.55a1.55,1.55,0,0,1-1.55,1.55h-1.41V131.32h1.41A1.55,1.55,0,0,1,352.17,132.87Z" transform="translate(-77.83)"/><path class="cls-3" d="M349.21,173V526.13A33.88,33.88,0,0,1,315.32,560H114.68a33.88,33.88,0,0,1-33.89-33.87V33.87A33.88,33.88,0,0,1,114.68,0h32V8.94H115.4A26.85,26.85,0,0,0,88.56,35.78V524.22a26.84,26.84,0,0,0,26.84,26.84H314.61a26.83,26.83,0,0,0,26.83-26.84V35.78A26.82,26.82,0,0,0,314.61,8.94H283.3V0h32a33.88,33.88,0,0,1,33.89,33.87V173Z" transform="translate(-77.83)"/><path id="SVGID" class="cls-4" d="M341.43,35.78V524.22a26.82,26.82,0,0,1-26.83,26.84H115.39a26.85,26.85,0,0,1-26.84-26.84V35.78A26.84,26.84,0,0,1,115.39,8.94H146.7V18A13.58,13.58,0,0,0,160.28,31.6H269.7A13.57,13.57,0,0,0,283.28,18V8.94h31.31A26.83,26.83,0,0,1,341.43,35.78Z" transform="translate(-77.83)"/><path class="cls-3" d="M283.29,8.94V18A13.58,13.58,0,0,1,269.71,31.6H160.29A13.57,13.57,0,0,1,146.71,18V0H283.29V8.94Zm-34.11,9.67a3,3,0,1,0-3,3A3,3,0,0,0,249.18,18.61Zm-14.65,0A2.62,2.62,0,0,0,231.91,16H198.1a2.62,2.62,0,0,0,0,5.24h33.81A2.62,2.62,0,0,0,234.53,18.61Z" transform="translate(-77.83)"/><path class="cls-5" d="M312.82,557.3H117.18a34.06,34.06,0,0,1-33.82-34.23V36.94A34.07,34.07,0,0,1,117.18,2.71H312.81a34.06,34.06,0,0,1,33.82,34.23V523.06A34.06,34.06,0,0,1,312.82,557.3ZM117.18,4.27A32.52,32.52,0,0,0,84.91,37V523.07a32.52,32.52,0,0,0,32.27,32.68H312.81a32.52,32.52,0,0,0,32.27-32.68V36.94A32.51,32.51,0,0,0,312.81,4.26H117.18Z" transform="translate(-77.83)"/><path class="cls-6" d="M246.22,15.63a3,3,0,1,1-3,3A3,3,0,0,1,246.22,15.63Z" transform="translate(-77.83)"/><path class="cls-6" d="M231.91,16a2.62,2.62,0,1,1,0,5.24H198.1a2.62,2.62,0,0,1,0-5.24Z" transform="translate(-77.83)"/><path class="cls-3" d="M80.79,168.77v41.65H79.38a1.55,1.55,0,0,1-1.55-1.55V170.32a1.55,1.55,0,0,1,1.55-1.55Z" transform="translate(-77.83)"/><path class="cls-3" d="M80.79,116.88v41.65H79.38A1.55,1.55,0,0,1,77.83,157V118.43a1.55,1.55,0,0,1,1.55-1.55Z" transform="translate(-77.83)"/><path class="cls-3" d="M80.79,79.7V92.77H79.38a1.55,1.55,0,0,1-1.55-1.55v-10a1.55,1.55,0,0,1,1.55-1.55Z" transform="translate(-77.83)"/><path class="cls-1" d="M305.4,24.5a.86.86,0,1,0,.86.86A.86.86,0,0,0,305.4,24.5Zm-2-1.1.76.76a1.71,1.71,0,0,1,2.42,0l.76-.76a2.78,2.78,0,0,0-3.94,0Zm-1.66-1.67.76.76a4.06,4.06,0,0,1,5.74,0l.76-.76a5.12,5.12,0,0,0-7.26,0Zm3.63-3.61a7.22,7.22,0,0,0-5.12,2.12L301,21a6.16,6.16,0,0,1,8.72,0l.76-.76A7.26,7.26,0,0,0,305.4,18.12Z" transform="translate(-77.83)"/><path class="cls-1" d="M296.76,19.3v6.63h1.07V19.3Zm-2,6.63h1.07V20.52h-1.07Zm-2,0h1.07v-4.2h-1.07Zm-2,0h1.07v-3h-1.07Zm-2,0h1.07V24.16h-1.07Z" transform="translate(-77.83)"/><path class="cls-1" d="M313.91,21.12v3.42a.86.86,0,0,0,.86.86h7.89V20.26h-7.89A.85.85,0,0,0,313.91,21.12Zm12.26.87V21a1.43,1.43,0,0,0-1.43-1.43H314.66A1.43,1.43,0,0,0,313.23,21v3.62a1.43,1.43,0,0,0,1.43,1.43h10.08a1.43,1.43,0,0,0,1.43-1.43v-1h.64V22Zm-.26,2.64a1.16,1.16,0,0,1-1.16,1.16H314.67a1.16,1.16,0,0,1-1.16-1.16V21a1.16,1.16,0,0,1,1.16-1.16h10.08A1.16,1.16,0,0,1,325.91,21Z" transform="translate(-77.83)"/><rect class="cls-3" x="263.6" y="50.69" width="7.78" height="3.88"/><rect class="cls-3" x="2.96" y="50.69" width="7.78" height="3.88"/><rect class="cls-3" x="263.6" y="505.44" width="7.78" height="3.88"/><rect class="cls-3" x="2.96" y="505.44" width="7.78" height="3.88"/><path class="cls-1" d="M158.27,92.77A29.29,29.29,0,1,1,129,63.48,29.17,29.17,0,0,1,158.27,92.77Z" transform="translate(-77.83)"/><path class="cls-3" d="M151.71,111.24a29.27,29.27,0,0,1-45.45,0,5.39,5.39,0,0,1,2.28-1.85L120,104.54a3.63,3.63,0,0,0,2.22-3.35V99a18.55,18.55,0,0,1-3.85-7.58,1.22,1.22,0,0,1-1-.79l-1.48-4.07a1.24,1.24,0,0,1,.79-1.6l.53-.17c-.58-8.44,3.15-12.5,11.71-12.53s12.29,4.09,11.71,12.53v0l.68.22a1.24,1.24,0,0,1,.79,1.6l-1.48,4.07a1.24,1.24,0,0,1-1.15.81,19.07,19.07,0,0,1-3.69,7.4v2.4a3.65,3.65,0,0,0,2.22,3.35l11.44,4.85A5.23,5.23,0,0,1,151.71,111.24Z" transform="translate(-77.83)"/><text class="cls-7" transform="translate(91.67 74.38)">Jack<tspan class="cls-8" x="26.13" y="0"> </tspan><tspan x="28.96" y="0">Austin</tspan></text><text class="cls-9" transform="translate(69.92 252.51)"><tspan class="cls-10">T</tspan><tspan x="5.49" y="0">OD</tspan><tspan class="cls-11" x="19.38" y="0">A</tspan><tspan class="cls-10" x="24.87" y="0">Y</tspan></text><text class="cls-9" transform="translate(122.7 252.51)">WEEK</text><text class="cls-9" transform="translate(169.9 252.51)">MONTH</text><text class="cls-12" transform="translate(21.87 205.52)">DE<tspan class="cls-11" x="12.86" y="0">T</tspan><tspan x="17.83" y="0">AILED S</tspan><tspan class="cls-13" x="53.34" y="0">TA</tspan><tspan x="63.8" y="0">TISTICS</tspan></text><g class="cls-14"><text class="cls-15" transform="translate(91.67 158.54)">kcal </text><text class="cls-16" transform="translate(108.4 158.54)">485</text></g><line class="cls-17" x1="91.67" y1="92.77" x2="219.46" y2="92.77"/><g class="cls-14"><text class="cls-18" transform="translate(91.67 107.09)">W<tspan class="cls-19" x="5.71" y="0">eight</tspan></text><text class="cls-20" transform="translate(110.35 107.09)"><tspan xml:space="preserve"> 60</tspan></text></g><text class="cls-20" transform="translate(179.22 140.69)">+ 3.462</text><text class="cls-20" transform="translate(179.22 150.78)">+ 1.84500</text><g class="cls-14"><text class="cls-21" transform="translate(91.67 122.06)">Gender</text><text class="cls-20" transform="translate(110.77 122.06)"><tspan xml:space="preserve"> Male</tspan></text></g><g class="cls-14"><text class="cls-21" transform="translate(139.97 107.09)">height</text><text class="cls-20" transform="translate(156.85 107.09)"><tspan xml:space="preserve"> 178</tspan></text></g><text class="cls-20" transform="translate(91.67 172.98)">Lorem ipsum dolor ipsum sit amet</text><text class="cls-22" transform="translate(21.87 509.32)">01</text><text class="cls-22" transform="translate(35.17 509.32)">02</text><text class="cls-22" transform="translate(48.47 509.32)">03</text><text class="cls-22" transform="translate(61.77 509.32)">04</text><text class="cls-22" transform="translate(75.07 509.32)">05</text><text class="cls-22" transform="translate(88.37 509.32)">06</text><text class="cls-22" transform="translate(101.67 509.32)">07</text><text class="cls-22" transform="translate(114.97 509.32)">08</text><text class="cls-22" transform="translate(128.27 509.32)">09</text><text class="cls-22" transform="translate(141.57 509.32)">10</text><text class="cls-23" transform="translate(154.88 509.32)">1<tspan class="cls-24" x="2.97" y="0">1</tspan></text><text class="cls-22" transform="translate(168.17 509.32)">12</text><text class="cls-22" transform="translate(181.48 509.32)">13</text><text class="cls-22" transform="translate(194.78 509.32)">14</text><text class="cls-22" transform="translate(208.08 509.32)">15</text><text class="cls-22" transform="translate(221.38 509.32)">16</text><text class="cls-22" transform="translate(234.68 509.32)">17</text><text class="cls-22" transform="translate(247.98 509.32)">18</text><text class="cls-25" transform="translate(21.87 215.84)">Lorem ipsum dolor</text><text class="cls-12" transform="translate(21.87 388.69)">S<tspan class="cls-11" x="6.18" y="0">TA</tspan><tspan x="16.63" y="0">TISTICS GRAPH</tspan></text><text class="cls-25" transform="translate(21.87 399.02)">Lorem ipsum dolor</text><rect class="cls-26" x="62.51" y="239.31" width="45.73" height="20.26"/><line class="cls-26" x1="21.87" y1="346.91" x2="252.45" y2="346.91"/><line class="cls-26" x1="21.87" y1="331.05" x2="252.45" y2="331.05"/><line class="cls-26" x1="21.87" y1="315.2" x2="252.45" y2="315.2"/><line class="cls-26" x1="21.87" y1="299.35" x2="252.45" y2="299.35"/><line class="cls-26" x1="21.87" y1="283.49" x2="252.45" y2="283.49"/><line class="cls-26" x1="214.02" y1="267.63" x2="214.02" y2="362.76"/><line class="cls-26" x1="175.59" y1="267.63" x2="175.59" y2="362.76"/><line class="cls-26" x1="137.16" y1="267.63" x2="137.16" y2="362.76"/><line class="cls-26" x1="98.73" y1="267.63" x2="98.73" y2="362.76"/><line class="cls-26" x1="60.3" y1="267.63" x2="60.3" y2="362.76"/><line class="cls-27" x1="21.87" y1="421.44" x2="21.87" y2="498.61"/><line class="cls-28" x1="26.35" y1="467.42" x2="26.35" y2="498.61"/><line class="cls-27" x1="35.17" y1="421.44" x2="35.17" y2="498.61"/><line class="cls-28" x1="39.65" y1="453.77" x2="39.65" y2="498.61"/><line class="cls-27" x1="48.47" y1="421.44" x2="48.47" y2="498.61"/><line class="cls-28" x1="52.95" y1="474.71" x2="52.95" y2="498.61"/><line class="cls-27" x1="61.77" y1="421.44" x2="61.77" y2="498.61"/><line class="cls-28" x1="66.25" y1="453.77" x2="66.25" y2="498.61"/><line class="cls-27" x1="75.07" y1="421.44" x2="75.07" y2="498.61"/><line class="cls-28" x1="79.55" y1="435.95" x2="79.55" y2="498.61"/><line class="cls-27" x1="88.37" y1="421.44" x2="88.37" y2="498.61"/><line class="cls-28" x1="92.85" y1="484.98" x2="92.85" y2="498.61"/><line class="cls-27" x1="101.67" y1="421.44" x2="101.67" y2="498.61"/><line class="cls-28" x1="106.15" y1="472.92" x2="106.15" y2="498.61"/><line class="cls-27" x1="114.97" y1="421.44" x2="114.97" y2="498.61"/><line class="cls-28" x1="119.45" y1="440.22" x2="119.45" y2="498.61"/><line class="cls-27" x1="128.27" y1="421.44" x2="128.27" y2="498.61"/><line class="cls-28" x1="132.75" y1="453.77" x2="132.75" y2="498.61"/><line class="cls-27" x1="141.57" y1="421.44" x2="141.57" y2="498.61"/><line class="cls-28" x1="146.05" y1="432.59" x2="146.05" y2="498.61"/><line class="cls-27" x1="154.87" y1="421.44" x2="154.87" y2="498.61"/><line class="cls-28" x1="159.35" y1="472.92" x2="159.35" y2="498.61"/><line class="cls-27" x1="168.17" y1="421.44" x2="168.17" y2="498.61"/><line class="cls-28" x1="172.65" y1="482.15" x2="172.65" y2="498.61"/><line class="cls-27" x1="181.47" y1="421.44" x2="181.47" y2="498.61"/><line class="cls-28" x1="185.95" y1="421.44" x2="185.95" y2="498.61"/><line class="cls-27" x1="194.77" y1="421.44" x2="194.77" y2="498.61"/><line class="cls-28" x1="199.25" y1="442.06" x2="199.25" y2="498.61"/><line class="cls-27" x1="208.07" y1="421.44" x2="208.07" y2="498.61"/><line class="cls-28" x1="212.55" y1="478.73" x2="212.55" y2="498.61"/><line class="cls-27" x1="221.37" y1="421.44" x2="221.37" y2="498.61"/><line class="cls-28" x1="225.85" y1="445.73" x2="225.85" y2="498.61"/><line class="cls-27" x1="234.67" y1="421.44" x2="234.67" y2="498.61"/><line class="cls-28" x1="239.15" y1="472.92" x2="239.15" y2="498.61"/><line class="cls-27" x1="247.97" y1="421.44" x2="247.97" y2="498.61"/><line class="cls-28" x1="252.45" y1="435.95" x2="252.45" y2="498.61"/><path class="cls-29" d="M98.3,345.67a28.83,28.83,0,0,0,21,1.3,29.19,29.19,0,0,0,9.55-5.11c3.21-2.6,5-6.22,7.54-9.39a11.77,11.77,0,0,1,9.14-4.49c7.21-.22,14.66,4.12,21.78,1.57a10.32,10.32,0,0,0,1.19-.5c5.5-2.7,7.62-9.58,7.47-15.71-.07-2.74-.46-5.5,0-8.2s2-5.44,4.54-6.39c3.93-1.45,7.94,1.78,10.73,4.91a107,107,0,0,1,12.64,17.42c2.66,4.57,6.37,10.09,11.6,9.28,4.66-.72,6.84-6.05,8.07-10.6,2-7.24,3.76-14.62,7.35-21.21s9.29-12.41,16.55-14.31c8-2.1,16.51.88,23.82,4.82s14.16,8.92,22.1,11.33" transform="translate(-77.83)"/><circle class="cls-30" cx="21.87" cy="346.91" r="4.66"/><circle class="cls-31" cx="60.3" cy="331.05" r="4.66"/><circle class="cls-32" cx="98.73" cy="299.35" r="4.66"/><circle class="cls-33" cx="137.16" cy="331.05" r="4.66"/><circle class="cls-34" cx="253.42" cy="283.49" r="4.66" transform="translate(-144.82 488.22) rotate(-80.78)"/><circle class="cls-35" cx="214.02" cy="299.35" r="4.66"/></svg>