<svg xmlns="http://www.w3.org/2000/svg" viewBox="0 0 548 949.06"><g id="Layer_2" data-name="Layer 2"><g id="Layer_1-2" data-name="Layer 1"><polygon points="548 158.2 548 418.15 401.65 333.65 401.65 242.69 274 168.99 146.35 242.69 146.35 333.65 0 418.15 0 158.2 274 0 548 158.2"/><polygon points="401.65 706.26 548 790.75 548 790.86 274 949.06 0 790.86 0 790.75 146.35 706.26 146.35 706.37 274 780.07 401.65 706.37 401.65 706.26"/><polygon points="548 474.48 548 734.43 401.65 649.92 401.65 559.07 274 632.78 146.35 559.07 146.35 649.92 0 734.43 0 474.48 146.35 389.98 146.35 390.09 274 463.79 401.65 390.09 401.65 389.98 548 474.48"/></g></g></svg>