<svg xmlns="http://www.w3.org/2000/svg" viewBox="0 0 94.41 163.5"><defs><style>.cls-1{fill:#fff;}</style></defs><g id="Layer_2" data-name="Layer 2"><g id="Layer_1-2" data-name="Layer 1"><polygon class="cls-1" points="94.41 27.25 94.41 72.04 69.19 57.48 69.19 41.81 47.2 29.11 25.21 41.81 25.21 57.48 0 72.04 0 27.25 47.2 0 94.41 27.25"/><polygon class="cls-1" points="69.19 121.67 94.41 136.23 94.41 136.25 47.2 163.5 0 136.25 0 136.23 25.21 121.67 25.21 121.69 47.2 134.39 69.19 121.69 69.19 121.67"/><polygon class="cls-1" points="94.41 81.74 94.41 126.52 69.19 111.97 69.19 96.31 47.2 109.01 25.21 96.31 25.21 111.97 0 126.52 0 81.74 25.21 67.19 25.21 67.2 47.2 79.9 69.19 67.2 69.19 67.19 94.41 81.74"/></g></g></svg>