<?xml version="1.0" encoding="utf-8"?>
<!-- Generator: Adobe Illustrator 23.0.1, SVG Export Plug-In . SVG Version: 6.00 Build 0)  -->
<svg version="1.1" id="Layer_1" xmlns="http://www.w3.org/2000/svg" xmlns:xlink="http://www.w3.org/1999/xlink" x="0px" y="0px"
	 viewBox="0 0 430 560" style="enable-background:new 0 0 430 560;" xml:space="preserve">
<style type="text/css">
	.st0{fill:#FFFFFF;}
	.st1{fill:url(#SVGID_1_);}
	.st2{fill:#151616;}
	.st3{fill:none;}
	.st4{fill:url(#SVGID_3_);}
	.st5{fill:#3A4D57;}
	.st6{font-family:'OpenSans';}
	.st7{font-size:12.7101px;}
	.st8{font-size:9.2595px;}
	.st9{fill:#BFC1BF;}
	.st10{font-size:9.059px;}
	.st11{font-size:29.4417px;}
	.st12{fill:none;stroke:#FFFFFF;stroke-width:0.5;stroke-miterlimit:10;}
	.st13{font-size:6.173px;}
	.st14{fill:#25BCAF;}
	.st15{fill:none;stroke:#BFC1BF;stroke-width:0.25;stroke-miterlimit:10;}
	.st16{fill:none;stroke:#FD3E40;stroke-width:0.5;stroke-miterlimit:10;}
	.st17{fill:none;stroke:#25BCAF;stroke-width:0.5;stroke-miterlimit:10;}
	.st18{fill:none;stroke:#151616;stroke-width:0.25;stroke-miterlimit:10;}
	.st19{fill:#FD3E40;}
</style>
<g>
	<path class="st0" d="M341.43,35.78v488.43c0,14.83-12,26.84-26.83,26.84H115.39c-14.81,0-26.84-12.02-26.84-26.84V35.78
		c0-14.83,12.03-26.84,26.84-26.84h31.31v9.08c0,7.51,6.09,13.58,13.58,13.58h109.42c7.5,0,13.58-6.07,13.58-13.58V8.94h31.31
		C329.43,8.94,341.43,20.96,341.43,35.78z"/>
	<linearGradient id="SVGID_1_" gradientUnits="userSpaceOnUse" x1="149.877" y1="-15.1207" x2="280.1175" y2="210.4625">
		<stop  offset="0" style="stop-color:#FD3E40"/>
		<stop  offset="0.201" style="stop-color:#F93C42"/>
		<stop  offset="0.3972" style="stop-color:#ED3749"/>
		<stop  offset="0.5916" style="stop-color:#DA2E54"/>
		<stop  offset="0.7849" style="stop-color:#BE2163"/>
		<stop  offset="0.9756" style="stop-color:#9B1077"/>
		<stop  offset="1" style="stop-color:#960E7A"/>
	</linearGradient>
	<path class="st1" d="M341.43,35.78v123.77c0,14.83-12,26.84-26.83,26.84H115.39c-14.81,0-26.84-12.02-26.84-26.84V35.78
		c0-14.83,12.03-26.84,26.84-26.84h31.31v9.08c0,7.51,6.09,13.58,13.58,13.58h109.42c7.5,0,13.58-6.07,13.58-13.58V8.94h31.31
		C329.43,8.94,341.43,20.96,341.43,35.78z"/>
	<path class="st2" d="M352.17,132.87v38.55c0,0.86-0.7,1.55-1.55,1.55h-1.41v-41.65h1.41C351.48,131.32,352.17,132.02,352.17,132.87
		z"/>
	<path class="st2" d="M349.21,172.97v353.15c0,18.71-15.17,33.87-33.89,33.87H114.68c-18.72,0-33.89-15.17-33.89-33.87V210.42
		v-41.65v-10.23v-41.65V92.77V79.7V33.87C80.79,15.17,95.96,0,114.68,0h32.03v8.94h-31.31c-14.81,0-26.84,12.02-26.84,26.84v488.43
		c0,14.83,12.03,26.84,26.84,26.84h199.21c14.83,0,26.83-12.02,26.83-26.84V35.78c0-14.83-12-26.84-26.83-26.84h-31.31V0h32.03
		c18.72,0,33.89,15.17,33.89,33.87v97.45V172.97z"/>
	<path id="SVGID_2_" class="st3" d="M341.43,35.78v488.43c0,14.83-12,26.84-26.83,26.84H115.39c-14.81,0-26.84-12.02-26.84-26.84
		V35.78c0-14.83,12.03-26.84,26.84-26.84h31.31v9.08c0,7.51,6.09,13.58,13.58,13.58h109.42c7.5,0,13.58-6.07,13.58-13.58V8.94h31.31
		C329.43,8.94,341.43,20.96,341.43,35.78z"/>
	<path class="st2" d="M283.29,8.94v9.08c0,7.51-6.09,13.58-13.58,13.58H160.29c-7.5,0-13.58-6.07-13.58-13.58V8.94V0h136.58V8.94z
		 M249.18,18.61c0-1.65-1.32-2.98-2.97-2.98s-2.96,1.34-2.96,2.98c0,1.63,1.32,2.97,2.96,2.97S249.18,20.24,249.18,18.61z
		 M234.53,18.61c0-1.46-1.18-2.62-2.62-2.62h-33.81c-1.44,0-2.62,1.16-2.62,2.62c0,1.44,1.18,2.62,2.62,2.62h33.81
		C233.35,21.24,234.53,20.06,234.53,18.61z"/>
	<g>
		<linearGradient id="SVGID_3_" gradientUnits="userSpaceOnUse" x1="68.2392" y1="534.197" x2="361.7607" y2="25.8028">
			<stop  offset="0" style="stop-color:#BFC1BF"/>
			<stop  offset="0.0391" style="stop-color:#BDBFBD"/>
			<stop  offset="0.0614" style="stop-color:#B5B6B5"/>
			<stop  offset="0.0794" style="stop-color:#A7A8A7"/>
			<stop  offset="0.0951" style="stop-color:#939593"/>
			<stop  offset="0.1094" style="stop-color:#7A7B7A"/>
			<stop  offset="0.1226" style="stop-color:#5B5B5B"/>
			<stop  offset="0.135" style="stop-color:#353635"/>
			<stop  offset="0.1465" style="stop-color:#0C0C0C"/>
			<stop  offset="0.1493" style="stop-color:#000000"/>
			<stop  offset="0.2055" style="stop-color:#020202"/>
			<stop  offset="0.226" style="stop-color:#090909"/>
			<stop  offset="0.2406" style="stop-color:#141514"/>
			<stop  offset="0.2525" style="stop-color:#252625"/>
			<stop  offset="0.2626" style="stop-color:#3B3C3B"/>
			<stop  offset="0.2716" style="stop-color:#565756"/>
			<stop  offset="0.2798" style="stop-color:#767776"/>
			<stop  offset="0.287" style="stop-color:#9A9C9A"/>
			<stop  offset="0.2931" style="stop-color:#BFC1BF"/>
			<stop  offset="0.5486" style="stop-color:#000000"/>
			<stop  offset="0.6065" style="stop-color:#020202"/>
			<stop  offset="0.6275" style="stop-color:#090909"/>
			<stop  offset="0.6426" style="stop-color:#141514"/>
			<stop  offset="0.6548" style="stop-color:#252625"/>
			<stop  offset="0.6652" style="stop-color:#3B3C3B"/>
			<stop  offset="0.6745" style="stop-color:#565756"/>
			<stop  offset="0.6829" style="stop-color:#767776"/>
			<stop  offset="0.6903" style="stop-color:#9A9C9A"/>
			<stop  offset="0.6966" style="stop-color:#BFC1BF"/>
			<stop  offset="0.8746" style="stop-color:#000000"/>
			<stop  offset="0.8925" style="stop-color:#040404"/>
			<stop  offset="0.9106" style="stop-color:#101010"/>
			<stop  offset="0.9288" style="stop-color:#242424"/>
			<stop  offset="0.947" style="stop-color:#404140"/>
			<stop  offset="0.9652" style="stop-color:#646564"/>
			<stop  offset="0.9832" style="stop-color:#909190"/>
			<stop  offset="1" style="stop-color:#BFC1BF"/>
		</linearGradient>
		<path class="st4" d="M312.82,557.29H117.18c-18.65,0-33.82-15.35-33.82-34.23V36.94c0-18.87,15.17-34.23,33.82-34.23h195.63
			c18.65,0,33.82,15.35,33.82,34.23v486.11C346.64,541.93,331.46,557.29,312.82,557.29z M117.18,4.27
			c-17.79,0-32.27,14.66-32.27,32.68v486.11c0,18.02,14.48,32.68,32.27,32.68h195.63c17.79,0,32.27-14.66,32.27-32.68V36.94
			c0-18.02-14.47-32.68-32.27-32.68H117.18z"/>
	</g>
	<path class="st5" d="M246.22,15.63c1.65,0,2.97,1.34,2.97,2.98c0,1.63-1.32,2.97-2.97,2.97s-2.96-1.34-2.96-2.97
		C243.25,16.97,244.57,15.63,246.22,15.63z"/>
	<path class="st5" d="M231.91,15.99c1.44,0,2.62,1.16,2.62,2.62c0,1.44-1.18,2.62-2.62,2.62h-33.81c-1.44,0-2.62-1.18-2.62-2.62
		c0-1.46,1.18-2.62,2.62-2.62H231.91z"/>
	<path class="st2" d="M80.79,168.77v41.65h-1.41c-0.86,0-1.55-0.7-1.55-1.55v-38.55c0-0.86,0.7-1.55,1.55-1.55H80.79z"/>
	<path class="st2" d="M80.79,116.88v41.65h-1.41c-0.86,0-1.55-0.7-1.55-1.55v-38.55c0-0.86,0.7-1.55,1.55-1.55H80.79z"/>
	<path class="st2" d="M80.79,79.7v13.07h-1.41c-0.86,0-1.55-0.7-1.55-1.55v-9.97c0-0.86,0.7-1.55,1.55-1.55H80.79z"/>
	<g>
		<path class="st0" d="M305.4,24.5c-0.48,0-0.86,0.39-0.86,0.86c0,0.48,0.39,0.86,0.86,0.86c0.48,0,0.86-0.39,0.86-0.86
			C306.26,24.89,305.88,24.5,305.4,24.5z M303.43,23.4l0.76,0.76c0.31-0.31,0.74-0.5,1.21-0.5s0.9,0.19,1.21,0.5l0.76-0.76
			c-0.5-0.5-1.2-0.82-1.97-0.82C304.63,22.58,303.94,22.89,303.43,23.4z M301.77,21.73l0.76,0.76c0.74-0.74,1.75-1.19,2.87-1.19
			s2.14,0.46,2.87,1.19l0.76-0.76c-0.93-0.93-2.21-1.51-3.63-1.51C303.98,20.23,302.7,20.8,301.77,21.73z M305.4,18.12
			c-2,0-3.81,0.81-5.12,2.12l0.76,0.76c1.12-1.12,2.66-1.81,4.36-1.81s3.24,0.69,4.36,1.81l0.76-0.76
			C309.21,18.94,307.4,18.12,305.4,18.12z"/>
		<path class="st0" d="M296.76,19.3v6.63h1.07V19.3H296.76z M294.76,25.93h1.07v-5.41h-1.07V25.93z M292.76,25.93h1.07v-4.2h-1.07
			V25.93z M290.75,25.93h1.07v-2.99h-1.07V25.93z M288.75,25.93h1.07v-1.77h-1.07V25.93z"/>
		<path class="st0" d="M313.91,21.12v3.42c0,0.48,0.39,0.86,0.86,0.86h7.89v-5.14h-7.89C314.29,20.25,313.91,20.64,313.91,21.12z
			 M326.17,21.99v-0.97c0-0.79-0.64-1.43-1.43-1.43h-10.08c-0.79,0-1.43,0.64-1.43,1.43v3.62c0,0.79,0.64,1.43,1.43,1.43h10.08
			c0.79,0,1.43-0.64,1.43-1.43v-0.97h0.64v-1.68H326.17z M325.91,24.63c0,0.64-0.52,1.16-1.16,1.16h-10.08
			c-0.64,0-1.16-0.52-1.16-1.16v-3.62c0-0.64,0.52-1.16,1.16-1.16h10.08c0.64,0,1.16,0.52,1.16,1.16V24.63z"/>
	</g>
	<g>
		<g>
			<rect x="341.43" y="50.69" class="st2" width="7.78" height="3.88"/>
			<rect x="80.79" y="50.69" class="st2" width="7.78" height="3.88"/>
		</g>
		<g>
			<rect x="341.43" y="505.43" class="st2" width="7.78" height="3.88"/>
			<rect x="80.79" y="505.43" class="st2" width="7.78" height="3.88"/>
		</g>
	</g>
	<g>
		<path class="st0" d="M158.27,92.77c0,7-2.46,13.43-6.56,18.47c-5.37,6.6-13.55,10.82-22.72,10.82s-17.36-4.22-22.73-10.82
			c-4.1-5.04-6.56-11.46-6.56-18.47c0-16.17,13.11-29.29,29.29-29.29S158.27,76.6,158.27,92.77z"/>
		<path class="st2" d="M151.71,111.24c-5.37,6.6-13.55,10.82-22.72,10.82s-17.36-4.22-22.73-10.82c0.56-0.8,1.35-1.45,2.28-1.85
			l11.43-4.85c1.35-0.57,2.22-1.89,2.22-3.35v-2.23c-1.64-1.8-2.95-4.35-3.85-7.58c-0.44-0.06-0.83-0.35-0.99-0.79l-1.48-4.07
			c-0.24-0.66,0.12-1.39,0.79-1.6l0.53-0.17c-0.58-8.44,3.15-12.5,11.71-12.53c8.56,0.02,12.29,4.09,11.71,12.53l0.01-0.05
			l0.68,0.22c0.67,0.21,1.03,0.94,0.79,1.6l-1.48,4.07c-0.19,0.5-0.66,0.81-1.15,0.81c-0.88,3.12-2.13,5.61-3.69,7.4v2.4
			c0,1.46,0.88,2.78,2.22,3.35l11.44,4.85C150.37,109.79,151.15,110.44,151.71,111.24z"/>
	</g>
	<g>
		<text transform="matrix(1 0 0 1 169.4951 74.3779)" class="st0 st6 st7">Jack Austin</text>
	</g>
	<g>
		<g>
			<text transform="matrix(1 0 0 1 147.7471 252.5039)" class="st2 st6 st8">TODAY</text>
		</g>
		<g>
			<text transform="matrix(1 0 0 1 200.5244 252.5039)" class="st2 st6 st8">WEEK</text>
		</g>
		<g>
			<text transform="matrix(1 0 0 1 247.7275 252.5039)" class="st2 st6 st8">MONTH</text>
		</g>
	</g>
	<g>
		<text transform="matrix(1 0 0 1 99.6992 205.5137)" class="st9 st6 st8">DETAILED STATISTICS</text>
	</g>
	<g>
		<text transform="matrix(1 0 0 1 169.4951 158.5361)"><tspan x="0" y="0" class="st0 st6 st10">kcal </tspan><tspan x="16.73" y="0" class="st0 st6 st11">485</tspan></text>
	</g>
	<line class="st12" x1="169.5" y1="92.77" x2="297.29" y2="92.77"/>
	<g>
		<text transform="matrix(1 0 0 1 169.4951 107.0928)"><tspan x="0" y="0" class="st2 st6 st13">Weight</tspan><tspan x="18.68" y="0" class="st0 st6 st13"> 60</tspan></text>
	</g>
	<g>
		<text transform="matrix(1 0 0 1 257.0459 140.6895)" class="st0 st6 st13">+ 3.462</text>
	</g>
	<g>
		<text transform="matrix(1 0 0 1 257.0459 150.7754)" class="st0 st6 st13">+ 1.84500</text>
	</g>
	<text transform="matrix(1 0 0 1 169.4951 122.0615)"><tspan x="0" y="0" class="st2 st6 st13">Gender</tspan><tspan x="19.1" y="0" class="st0 st6 st13"> Male</tspan></text>
	<g>
		<text transform="matrix(1 0 0 1 217.7939 107.0928)"><tspan x="0" y="0" class="st2 st6 st13">height</tspan><tspan x="16.88" y="0" class="st0 st6 st13"> 178</tspan></text>
	</g>
	<g>
		<text transform="matrix(1 0 0 1 169.4961 172.9727)" class="st0 st6 st13">Lorem ipsum dolor ipsum sit amet</text>
	</g>
	<g>
		<text transform="matrix(1 0 0 1 99.7002 509.3076)" class="st9 st6 st13">01</text>
	</g>
	<g>
		<text transform="matrix(1 0 0 1 113.001 509.3076)" class="st9 st6 st13">02</text>
	</g>
	<g>
		<text transform="matrix(1 0 0 1 126.3008 509.3076)" class="st9 st6 st13">03</text>
	</g>
	<g>
		<text transform="matrix(1 0 0 1 139.6006 509.3076)" class="st9 st6 st13">04</text>
	</g>
	<g>
		<text transform="matrix(1 0 0 1 152.9014 509.3076)" class="st9 st6 st13">05</text>
	</g>
	<g>
		<text transform="matrix(1 0 0 1 166.2012 509.3076)" class="st9 st6 st13">06</text>
	</g>
	<g>
		<text transform="matrix(1 0 0 1 179.501 509.3076)" class="st9 st6 st13">07</text>
	</g>
	<g>
		<text transform="matrix(1 0 0 1 192.8018 509.3076)" class="st9 st6 st13">08</text>
	</g>
	<g>
		<text transform="matrix(1 0 0 1 206.1016 509.3076)" class="st9 st6 st13">09</text>
	</g>
	<g>
		<text transform="matrix(1 0 0 1 219.4014 509.3076)" class="st9 st6 st13">10</text>
	</g>
	<g>
		<text transform="matrix(1 0 0 1 232.7021 509.3076)" class="st9 st6 st13">11</text>
	</g>
	<g>
		<text transform="matrix(1 0 0 1 246.002 509.3076)" class="st9 st6 st13">12</text>
	</g>
	<g>
		<text transform="matrix(1 0 0 1 259.3027 509.3076)" class="st9 st6 st13">13</text>
	</g>
	<g>
		<text transform="matrix(1 0 0 1 272.6025 509.3076)" class="st9 st6 st13">14</text>
	</g>
	<g>
		<text transform="matrix(1 0 0 1 285.9023 509.3076)" class="st9 st6 st13">15</text>
	</g>
	<g>
		<text transform="matrix(1 0 0 1 299.2031 509.3076)" class="st9 st6 st13">16</text>
	</g>
	<g>
		<text transform="matrix(1 0 0 1 312.5029 509.3076)" class="st9 st6 st13">17</text>
	</g>
	<g>
		<text transform="matrix(1 0 0 1 325.8027 509.3076)" class="st9 st6 st13">18</text>
	</g>
	<g>
		<text transform="matrix(1 0 0 1 99.7012 215.8418)" class="st14 st6 st13">Lorem ipsum dolor</text>
	</g>
	<g>
		<text transform="matrix(1 0 0 1 99.6992 388.6885)" class="st9 st6 st8">STATISTICS GRAPH</text>
	</g>
	<g>
		<text transform="matrix(1 0 0 1 99.7012 399.0166)" class="st14 st6 st13">Lorem ipsum dolor</text>
	</g>
	<rect x="140.34" y="239.31" class="st15" width="45.73" height="20.26"/>
	<g>
		<line class="st15" x1="99.7" y1="346.9" x2="330.28" y2="346.9"/>
		<line class="st15" x1="99.7" y1="331.04" x2="330.28" y2="331.04"/>
		<line class="st15" x1="99.7" y1="315.19" x2="330.28" y2="315.19"/>
		<line class="st15" x1="99.7" y1="299.34" x2="330.28" y2="299.34"/>
		<line class="st15" x1="99.7" y1="283.48" x2="330.28" y2="283.48"/>
		<line class="st15" x1="291.85" y1="267.63" x2="291.85" y2="362.75"/>
		<line class="st15" x1="253.42" y1="267.63" x2="253.42" y2="362.75"/>
		<line class="st15" x1="214.99" y1="267.63" x2="214.99" y2="362.75"/>
		<line class="st15" x1="176.56" y1="267.63" x2="176.56" y2="362.75"/>
		<line class="st15" x1="138.13" y1="267.63" x2="138.13" y2="362.75"/>
	</g>
	<g>
		<g>
			<line class="st16" x1="99.7" y1="421.43" x2="99.7" y2="498.6"/>
			<line class="st17" x1="104.18" y1="467.41" x2="104.18" y2="498.6"/>
		</g>
		<g>
			<line class="st16" x1="113" y1="421.43" x2="113" y2="498.6"/>
			<line class="st17" x1="117.48" y1="453.76" x2="117.48" y2="498.6"/>
		</g>
		<g>
			<line class="st16" x1="126.3" y1="421.43" x2="126.3" y2="498.6"/>
			<line class="st17" x1="130.78" y1="474.7" x2="130.78" y2="498.6"/>
		</g>
		<g>
			<line class="st16" x1="139.6" y1="421.43" x2="139.6" y2="498.6"/>
			<line class="st17" x1="144.08" y1="453.76" x2="144.08" y2="498.6"/>
		</g>
		<g>
			<line class="st16" x1="152.9" y1="421.43" x2="152.9" y2="498.6"/>
			<line class="st17" x1="157.38" y1="435.94" x2="157.38" y2="498.6"/>
		</g>
		<g>
			<line class="st16" x1="166.2" y1="421.43" x2="166.2" y2="498.6"/>
			<line class="st17" x1="170.68" y1="484.97" x2="170.68" y2="498.6"/>
		</g>
		<g>
			<line class="st16" x1="179.5" y1="421.43" x2="179.5" y2="498.6"/>
			<line class="st17" x1="183.98" y1="472.91" x2="183.98" y2="498.6"/>
		</g>
		<g>
			<line class="st16" x1="192.8" y1="421.43" x2="192.8" y2="498.6"/>
			<line class="st17" x1="197.28" y1="440.21" x2="197.28" y2="498.6"/>
		</g>
		<g>
			<line class="st16" x1="206.1" y1="421.43" x2="206.1" y2="498.6"/>
			<line class="st17" x1="210.58" y1="453.76" x2="210.58" y2="498.6"/>
		</g>
		<g>
			<line class="st16" x1="219.4" y1="421.43" x2="219.4" y2="498.6"/>
			<line class="st17" x1="223.88" y1="432.58" x2="223.88" y2="498.6"/>
		</g>
		<g>
			<line class="st16" x1="232.7" y1="421.43" x2="232.7" y2="498.6"/>
			<line class="st17" x1="237.18" y1="472.91" x2="237.18" y2="498.6"/>
		</g>
		<g>
			<line class="st16" x1="246" y1="421.43" x2="246" y2="498.6"/>
			<line class="st17" x1="250.48" y1="482.14" x2="250.48" y2="498.6"/>
		</g>
		<g>
			<line class="st16" x1="259.3" y1="421.43" x2="259.3" y2="498.6"/>
			<line class="st17" x1="263.78" y1="421.43" x2="263.78" y2="498.6"/>
		</g>
		<g>
			<line class="st16" x1="272.6" y1="421.43" x2="272.6" y2="498.6"/>
			<line class="st17" x1="277.08" y1="442.05" x2="277.08" y2="498.6"/>
		</g>
		<g>
			<line class="st16" x1="285.9" y1="421.43" x2="285.9" y2="498.6"/>
			<line class="st17" x1="290.38" y1="478.72" x2="290.38" y2="498.6"/>
		</g>
		<g>
			<line class="st16" x1="299.2" y1="421.43" x2="299.2" y2="498.6"/>
			<line class="st17" x1="303.68" y1="445.72" x2="303.68" y2="498.6"/>
		</g>
		<g>
			<line class="st16" x1="312.5" y1="421.43" x2="312.5" y2="498.6"/>
			<line class="st17" x1="316.98" y1="472.91" x2="316.98" y2="498.6"/>
		</g>
		<g>
			<line class="st16" x1="325.8" y1="421.43" x2="325.8" y2="498.6"/>
			<line class="st17" x1="330.28" y1="435.94" x2="330.28" y2="498.6"/>
		</g>
	</g>
	<path class="st18" d="M98.3,345.66c6.51,3.14,14.16,3.46,21.02,1.3c3.46-1.1,6.73-2.82,9.55-5.11c3.21-2.6,4.98-6.22,7.54-9.39
		c2.33-2.88,5.44-4.38,9.14-4.49c7.21-0.22,14.66,4.12,21.78,1.57c0.41-0.14,0.8-0.31,1.19-0.5c5.5-2.7,7.62-9.58,7.47-15.71
		c-0.07-2.74-0.46-5.5-0.01-8.2c0.45-2.7,1.97-5.44,4.54-6.39c3.93-1.45,7.94,1.78,10.73,4.91c4.78,5.36,9.03,11.21,12.64,17.42
		c2.66,4.57,6.37,10.09,11.6,9.28c4.66-0.72,6.84-6.05,8.07-10.6c1.97-7.24,3.76-14.62,7.35-21.21c3.59-6.59,9.29-12.41,16.55-14.31
		c8.03-2.1,16.51,0.88,23.82,4.82c7.3,3.94,14.16,8.92,22.1,11.33"/>
	<circle class="st19" cx="99.7" cy="346.9" r="4.66"/>
	<circle class="st19" cx="138.13" cy="331.04" r="4.66"/>
	<circle class="st19" cx="176.56" cy="299.34" r="4.66"/>
	<circle class="st19" cx="214.99" cy="331.04" r="4.66"/>
	<circle class="st19" cx="253.42" cy="283.48" r="4.66"/>
	<circle class="st19" cx="291.85" cy="299.34" r="4.66"/>
</g>
</svg>
